<?xml version="1.0" encoding="UTF-8" standalone="no"?>
<!DOCTYPE svg PUBLIC "-//W3C//DTD SVG 1.1//EN"
        "http://www.w3.org/Graphics/SVG/1.1/DTD/svg11.dtd">
<!-- Generated by graphviz version 2.38.0 (20140413.2041)
 -->
<!-- Title: G Pages: 1 -->
<svg width="281pt" height="50pt"
     viewBox="0.00 0.00 280.69 49.70" xmlns="http://www.w3.org/2000/svg" xmlns:xlink="http://www.w3.org/1999/xlink">

    <g id="graph0" class="graph" transform="scale(1 1) rotate(0) translate(4 45.7002)">
        <title>G</title>
        <!-- Customer -->
        <g id="node1" class="node">
            <title>Customer</title>
            <ellipse fill="none" stroke="black" cx="45.496" cy="-23.7002" rx="45.4919" ry="18"/>
            <text text-anchor="middle" x="45.496" y="-20.0002" font-family="Times,serif" font-size="14.00">Customer
            </text>
        </g>
        <!-- Value -->
        <g id="node2" class="node">
            <title>Value</title>
            <ellipse fill="none" stroke="black" cx="240.839" cy="-23.7002" rx="31.6951" ry="18"/>
            <text text-anchor="middle" x="240.839" y="-20.0002" font-family="Times,serif" font-size="14.00">Value</text>
        </g>
        <!-- Customer&#45;&gt;Value -->
        <g id="edge1" class="edge">
            <title>Customer&#45;&gt;Value</title>
            <path fill="none" stroke="black" d="M91.3387,-23.7002C123.711,-23.7002 167.092,-23.7002 198.604,-23.7002"/>
            <polygon fill="black" stroke="black"
                     points="198.802,-27.2003 208.802,-23.7002 198.802,-20.2003 198.802,-27.2003"/>
            <text text-anchor="middle" x="149.992" y="-27.5002" font-family="Times,serif" font-size="14.00">Access
            </text>
        </g>
        <!-- Value&#45;&gt;Customer -->
        <g id="edge2" class="edge">
            <title>Value&#45;&gt;Customer</title>
            <path fill="none" stroke="black"
                  d="M216.013,-12.3991C208.218,-9.25828 199.399,-6.27757 190.992,-4.70017 155.173,2.02086 145.04,0.658448 108.992,-4.70017 102.588,-5.65217 95.9315,-7.12457 89.4544,-8.83791"/>
            <polygon fill="black" stroke="black"
                     points="88.1377,-5.57405 79.4852,-11.6884 90.0622,-12.3043 88.1377,-5.57405"/>
            <text text-anchor="middle" x="149.992" y="-8.50017" font-family="Times,serif" font-size="14.00">Retrieve
                Value
            </text>
        </g>
    </g>
</svg>
