<?xml version="1.0" encoding="UTF-8" standalone="no"?>
<!DOCTYPE svg PUBLIC "-//W3C//DTD SVG 1.1//EN"
 "http://www.w3.org/Graphics/SVG/1.1/DTD/svg11.dtd">
<!-- Generated by graphviz version 2.38.0 (20140413.2041)
 -->
<!-- Title: G Pages: 1 -->
<svg width="412pt" height="102pt"
 viewBox="0.00 0.00 411.69 102.00" xmlns="http://www.w3.org/2000/svg" xmlns:xlink="http://www.w3.org/1999/xlink">
<g id="graph0" class="graph" transform="scale(1 1) rotate(0) translate(4 98)">
<title>G</title>
<polygon fill="white" fill-opacity="0" stroke="none" points="-4,4 -4,-98 407.686,-98 407.686,4 -4,4"/>
<!-- Customer -->
<g id="node1" class="node"><title>Customer</title>
<ellipse fill="none" stroke="black" cx="45.496" cy="-47" rx="45.4919" ry="18"/>
<text text-anchor="middle" x="45.496" y="-43.3" font-family="Times,serif" font-size="14.00">Customer</text>
</g>
<!-- User Interface -->
<g id="node2" class="node"><title>User Interface</title>
<polygon fill="none" stroke="black" points="302.992,-94 208.992,-94 208.992,-0 302.992,-0 302.992,-94"/>
<text text-anchor="middle" x="255.992" y="-43.3" font-family="Times,serif" font-size="14.00">User Interface</text>
</g>
<!-- Customer&#45;&gt;User Interface -->
<g id="edge1" class="edge"><title>Customer&#45;&gt;User Interface</title>
<path fill="none" stroke="black" d="M91.2236,-47C122.67,-47 164.984,-47 198.722,-47"/>
<polygon fill="black" stroke="black" points="198.896,-50.5001 208.896,-47 198.896,-43.5001 198.896,-50.5001"/>
<text text-anchor="middle" x="149.992" y="-50.8" font-family="Times,serif" font-size="14.00">Interact</text>
</g>
<!-- User Interface&#45;&gt;Customer -->
<g id="edge4" class="edge"><title>User Interface&#45;&gt;Customer</title>
<path fill="none" stroke="black" d="M208.853,-31.5969C202.901,-30.1154 196.842,-28.85 190.992,-28 154.926,-22.7595 145.04,-22.6414 108.992,-28 102.588,-28.952 95.9315,-30.4244 89.4544,-32.1377"/>
<polygon fill="black" stroke="black" points="88.1377,-28.8739 79.4852,-34.9883 90.0622,-35.6042 88.1377,-28.8739"/>
<text text-anchor="middle" x="149.992" y="-31.8" font-family="Times,serif" font-size="14.00">Retrieve Value</text>
</g>
<!-- Value -->
<g id="node3" class="node"><title>Value</title>
<ellipse fill="none" stroke="black" cx="371.839" cy="-47" rx="31.6951" ry="18"/>
<text text-anchor="middle" x="371.839" y="-43.3" font-family="Times,serif" font-size="14.00">Value</text>
</g>
<!-- User Interface&#45;&gt;Value -->
<g id="edge2" class="edge"><title>User Interface&#45;&gt;Value</title>
<path fill="none" stroke="black" d="M303.298,-40.3555C312.59,-40.1689 322.273,-40.2298 331.309,-40.5383"/>
<polygon fill="black" stroke="black" points="331.406,-44.0464 341.558,-41.014 331.731,-37.054 331.406,-44.0464"/>
</g>
<!-- Value&#45;&gt;User Interface -->
<g id="edge3" class="edge"><title>Value&#45;&gt;User Interface</title>
<path fill="none" stroke="black" d="M341.558,-52.986C332.914,-53.5045 323.147,-53.7591 313.4,-53.7498"/>
<polygon fill="black" stroke="black" points="313.334,-50.249 303.298,-53.6445 313.261,-57.2486 313.334,-50.249"/>
</g>
</g>
</svg>
